<svg width="342" height="310" viewBox="0 0 342 310" fill="none" xmlns="http://www.w3.org/2000/svg">
<path d="M180 280C179.68 280 179.399 279.891 179.158 279.674C178.922 279.463 178.771 279.189 178.705 278.851C178.536 277.843 178.364 276.974 178.188 276.244C178.013 275.514 177.808 274.896 177.572 274.389C177.343 273.882 177.059 273.46 176.721 273.122C176.383 272.778 175.966 272.498 175.471 272.281C174.976 272.063 174.378 271.879 173.678 271.729C172.977 271.578 172.144 271.433 171.178 271.294C170.833 271.246 170.55 271.101 170.326 270.86C170.109 270.612 170 270.326 170 270C170 269.668 170.112 269.382 170.335 269.14C170.565 268.893 170.851 268.745 171.196 268.697C172.355 268.564 173.33 268.41 174.121 268.235C174.918 268.054 175.577 267.81 176.096 267.502C176.615 267.189 177.035 266.766 177.355 266.235C177.675 265.704 177.935 265.029 178.134 264.208C178.339 263.382 178.53 262.365 178.705 261.158C178.759 260.821 178.904 260.543 179.139 260.326C179.381 260.109 179.668 260 180 260C180.32 260 180.598 260.109 180.833 260.326C181.069 260.537 181.217 260.811 181.277 261.149C181.489 262.356 181.703 263.367 181.92 264.181C182.138 264.995 182.406 265.665 182.726 266.19C183.046 266.709 183.46 267.122 183.967 267.43C184.481 267.738 185.13 267.988 185.915 268.181C186.7 268.368 187.669 268.54 188.822 268.697C189.155 268.751 189.432 268.899 189.656 269.14C189.885 269.382 190 269.668 190 270C190 270.326 189.885 270.612 189.656 270.86C189.426 271.107 189.146 271.252 188.813 271.294C187.648 271.427 186.667 271.584 185.87 271.765C185.079 271.94 184.423 272.184 183.904 272.498C183.385 272.811 182.965 273.234 182.645 273.765C182.325 274.29 182.059 274.965 181.848 275.792C181.643 276.618 181.452 277.635 181.277 278.842C181.229 279.179 181.084 279.457 180.842 279.674C180.607 279.891 180.326 280 180 280Z" fill="#80D5FF"/>
<path d="M332 230C331.68 230 331.399 229.891 331.158 229.674C330.922 229.463 330.771 229.189 330.705 228.851C330.536 227.843 330.364 226.974 330.188 226.244C330.013 225.514 329.808 224.896 329.572 224.389C329.343 223.882 329.059 223.46 328.721 223.122C328.383 222.778 327.966 222.498 327.471 222.281C326.976 222.063 326.378 221.879 325.678 221.729C324.977 221.578 324.144 221.433 323.178 221.294C322.833 221.246 322.55 221.101 322.326 220.86C322.109 220.612 322 220.326 322 220C322 219.668 322.112 219.382 322.335 219.14C322.565 218.893 322.851 218.745 323.196 218.697C324.355 218.564 325.33 218.41 326.121 218.235C326.918 218.054 327.577 217.81 328.096 217.502C328.615 217.189 329.035 216.766 329.355 216.235C329.675 215.704 329.935 215.029 330.134 214.208C330.339 213.382 330.53 212.365 330.705 211.158C330.759 210.821 330.904 210.543 331.139 210.326C331.381 210.109 331.668 210 332 210C332.32 210 332.598 210.109 332.833 210.326C333.069 210.537 333.217 210.811 333.277 211.149C333.489 212.356 333.703 213.367 333.92 214.181C334.138 214.995 334.406 215.665 334.726 216.19C335.046 216.709 335.46 217.122 335.967 217.43C336.481 217.738 337.13 217.988 337.915 218.181C338.7 218.368 339.669 218.54 340.822 218.697C341.155 218.751 341.432 218.899 341.656 219.14C341.885 219.382 342 219.668 342 220C342 220.326 341.885 220.612 341.656 220.86C341.426 221.107 341.146 221.252 340.813 221.294C339.648 221.427 338.667 221.584 337.87 221.765C337.079 221.94 336.423 222.184 335.904 222.498C335.385 222.811 334.965 223.234 334.645 223.765C334.325 224.29 334.059 224.965 333.848 225.792C333.643 226.618 333.452 227.635 333.277 228.842C333.229 229.179 333.084 229.457 332.842 229.674C332.607 229.891 332.326 230 332 230Z" fill="#80D5FF"/>
<path d="M80 310C79.68 310 79.3992 309.891 79.1576 309.674C78.9221 309.463 78.7711 309.189 78.7047 308.851C78.5356 307.843 78.3635 306.974 78.1884 306.244C78.0133 305.514 77.808 304.896 77.5725 304.389C77.343 303.882 77.0592 303.46 76.721 303.122C76.3829 302.778 75.9662 302.498 75.471 302.281C74.9758 302.063 74.378 301.879 73.6775 301.729C72.9771 301.578 72.1437 301.433 71.1775 301.294C70.8333 301.246 70.5495 301.101 70.3261 300.86C70.1087 300.612 70 300.326 70 300C70 299.668 70.1117 299.382 70.3351 299.14C70.5646 298.893 70.8514 298.745 71.1957 298.697C72.3551 298.564 73.3303 298.41 74.1214 298.235C74.9185 298.054 75.5767 297.81 76.096 297.502C76.6153 297.189 77.035 296.766 77.3551 296.235C77.6751 295.704 77.9348 295.029 78.1341 294.208C78.3394 293.382 78.5296 292.365 78.7047 291.158C78.7591 290.821 78.904 290.543 79.1395 290.326C79.381 290.109 79.6679 290 80 290C80.32 290 80.5978 290.109 80.8333 290.326C81.0688 290.537 81.2168 290.811 81.2772 291.149C81.4885 292.356 81.7029 293.367 81.9203 294.181C82.1377 294.995 82.4064 295.665 82.7264 296.19C83.0465 296.709 83.4601 297.122 83.9674 297.43C84.4807 297.738 85.1298 297.988 85.9149 298.181C86.6999 298.368 87.6691 298.54 88.8225 298.697C89.1546 298.751 89.4324 298.899 89.6558 299.14C89.8853 299.382 90 299.668 90 300C90 300.326 89.8853 300.612 89.6558 300.86C89.4263 301.107 89.1455 301.252 88.8134 301.294C87.6479 301.427 86.6667 301.584 85.8696 301.765C85.0785 301.94 84.4233 302.184 83.904 302.498C83.3847 302.811 82.965 303.234 82.6449 303.765C82.3249 304.29 82.0592 304.965 81.8478 305.792C81.6425 306.618 81.4523 307.635 81.2772 308.842C81.2289 309.179 81.0839 309.457 80.8424 309.674C80.6069 309.891 80.3261 310 80 310Z" fill="#80D5FF"/>
<path d="M250 90C249.68 90 249.399 89.8914 249.158 89.6742C248.922 89.463 248.771 89.1885 248.705 88.8507C248.536 87.8431 248.364 86.9744 248.188 86.2443C248.013 85.5143 247.808 84.8959 247.572 84.3891C247.343 83.8824 247.059 83.46 246.721 83.1222C246.383 82.7783 245.966 82.4977 245.471 82.2805C244.976 82.0633 244.378 81.8793 243.678 81.7285C242.977 81.5777 242.144 81.4329 241.178 81.2941C240.833 81.2459 240.55 81.1011 240.326 80.8597C240.109 80.6124 240 80.3258 240 80C240 79.6682 240.112 79.3816 240.335 79.1403C240.565 78.8929 240.851 78.7451 241.196 78.6968C242.355 78.5641 243.33 78.4103 244.121 78.2353C244.918 78.0543 245.577 77.81 246.096 77.5023C246.615 77.1885 247.035 76.7662 247.355 76.2353C247.675 75.7044 247.935 75.0287 248.134 74.2081C248.339 73.3816 248.53 72.365 248.705 71.1584C248.759 70.8205 248.904 70.543 249.139 70.3258C249.381 70.1086 249.668 70 250 70C250.32 70 250.598 70.1086 250.833 70.3258C251.069 70.537 251.217 70.8115 251.277 71.1493C251.489 72.356 251.703 73.3665 251.92 74.181C252.138 74.9955 252.406 75.6652 252.726 76.19C253.046 76.7089 253.46 77.1222 253.967 77.4299C254.481 77.7376 255.13 77.9879 255.915 78.181C256.7 78.368 257.669 78.54 258.822 78.6968C259.155 78.7511 259.432 78.8989 259.656 79.1403C259.885 79.3816 260 79.6682 260 80C260 80.3258 259.885 80.6124 259.656 80.8597C259.426 81.1071 259.146 81.2519 258.813 81.2941C257.648 81.4268 256.667 81.5837 255.87 81.7647C255.079 81.9397 254.423 82.184 253.904 82.4977C253.385 82.8115 252.965 83.2338 252.645 83.7647C252.325 84.2896 252.059 84.9653 251.848 85.7919C251.643 86.6184 251.452 87.635 251.277 88.8416C251.229 89.1795 251.084 89.457 250.842 89.6742C250.607 89.8914 250.326 90 250 90Z" fill="#80D5FF"/>
<path d="M200 20C199.68 20 199.399 19.8914 199.158 19.6742C198.922 19.463 198.771 19.1885 198.705 18.8507C198.536 17.8431 198.364 16.9744 198.188 16.2443C198.013 15.5143 197.808 14.8959 197.572 14.3891C197.343 13.8824 197.059 13.46 196.721 13.1222C196.383 12.7783 195.966 12.4977 195.471 12.2805C194.976 12.0633 194.378 11.8793 193.678 11.7285C192.977 11.5777 192.144 11.4329 191.178 11.2941C190.833 11.2459 190.55 11.1011 190.326 10.8597C190.109 10.6124 190 10.3258 190 10C190 9.66817 190.112 9.3816 190.335 9.14027C190.565 8.89291 190.851 8.7451 191.196 8.69683C192.355 8.5641 193.33 8.41026 194.121 8.23529C194.918 8.0543 195.577 7.80995 196.096 7.50226C196.615 7.18854 197.035 6.76621 197.355 6.23529C197.675 5.70437 197.935 5.02866 198.134 4.20814C198.339 3.3816 198.53 2.36501 198.705 1.15837C198.759 0.820513 198.904 0.542986 199.139 0.325792C199.381 0.108597 199.668 0 200 0C200.32 0 200.598 0.108597 200.833 0.325792C201.069 0.536953 201.217 0.811463 201.277 1.14932C201.489 2.35596 201.703 3.36652 201.92 4.181C202.138 4.99547 202.406 5.66516 202.726 6.19004C203.046 6.7089 203.46 7.12217 203.967 7.42986C204.481 7.73756 205.13 7.98793 205.915 8.18099C206.7 8.36802 207.669 8.53997 208.822 8.69683C209.155 8.75113 209.432 8.89894 209.656 9.14027C209.885 9.3816 210 9.66817 210 10C210 10.3258 209.885 10.6124 209.656 10.8597C209.426 11.1071 209.146 11.2519 208.813 11.2941C207.648 11.4268 206.667 11.5837 205.87 11.7647C205.079 11.9397 204.423 12.184 203.904 12.4977C203.385 12.8115 202.965 13.2338 202.645 13.7647C202.325 14.2896 202.059 14.9653 201.848 15.7919C201.643 16.6184 201.452 17.635 201.277 18.8416C201.229 19.1795 201.084 19.457 200.842 19.6742C200.607 19.8914 200.326 20 200 20Z" fill="#80D5FF"/>
<path d="M10 130C9.67995 130 9.39915 129.891 9.15761 129.674C8.9221 129.463 8.77114 129.189 8.70471 128.851C8.53563 127.843 8.36353 126.974 8.18841 126.244C8.01329 125.514 7.80797 124.896 7.57246 124.389C7.343 123.882 7.05918 123.46 6.72101 123.122C6.38285 122.778 5.96618 122.498 5.47101 122.281C4.97585 122.063 4.37802 121.879 3.67754 121.729C2.97705 121.578 2.14372 121.433 1.17754 121.294C0.833333 121.246 0.549517 121.101 0.326087 120.86C0.108696 120.612 0 120.326 0 120C0 119.668 0.111715 119.382 0.335145 119.14C0.564614 118.893 0.851449 118.745 1.19565 118.697C2.35507 118.564 3.33031 118.41 4.12138 118.235C4.91848 118.054 5.57669 117.81 6.09601 117.502C6.61534 117.189 7.03502 116.766 7.35507 116.235C7.67512 115.704 7.93478 115.029 8.13406 114.208C8.33937 113.382 8.52959 112.365 8.70471 111.158C8.75906 110.821 8.90399 110.543 9.13949 110.326C9.38104 110.109 9.66787 110 10 110C10.32 110 10.5978 110.109 10.8333 110.326C11.0688 110.537 11.2168 110.811 11.2772 111.149C11.4885 112.356 11.7029 113.367 11.9203 114.181C12.1377 114.995 12.4064 115.665 12.7264 116.19C13.0465 116.709 13.4601 117.122 13.9674 117.43C14.4807 117.738 15.1298 117.988 15.9149 118.181C16.6999 118.368 17.6691 118.54 18.8225 118.697C19.1546 118.751 19.4324 118.899 19.6558 119.14C19.8853 119.382 20 119.668 20 120C20 120.326 19.8853 120.612 19.6558 120.86C19.4263 121.107 19.1455 121.252 18.8134 121.294C17.6479 121.427 16.6667 121.584 15.8696 121.765C15.0785 121.94 14.4233 122.184 13.904 122.498C13.3847 122.811 12.965 123.234 12.6449 123.765C12.3249 124.29 12.0592 124.965 11.8478 125.792C11.6425 126.618 11.4523 127.635 11.2772 128.842C11.2289 129.179 11.0839 129.457 10.8424 129.674C10.6069 129.891 10.3261 130 10 130Z" fill="#80D5FF"/>
</svg>
