<svg width="24" height="24" viewBox="0 0 24 24" fill="none" xmlns="http://www.w3.org/2000/svg">
<path fill-rule="evenodd" clip-rule="evenodd" d="M13.92 0C15.9082 0 17.52 1.61177 17.52 3.6V7.2H20.4C22.3882 7.2 24 8.81177 24 10.8V20.4C24 22.3882 22.3882 24 20.4 24H3.6C1.61177 24 0 22.3882 0 20.4V15.6C0 13.6118 1.61178 12 3.6 12H6.48V3.6C6.48 1.61178 8.09177 0 10.08 0H13.92ZM14.88 21.36H9.12V3.6C9.12 3.06981 9.54981 2.64 10.08 2.64H13.92C14.4502 2.64 14.88 3.06981 14.88 3.6V21.36ZM3.6 21.36C3.06981 21.36 2.64 20.9302 2.64 20.4V15.6C2.64 15.0698 3.06981 14.64 3.6 14.64H6.48V21.36H3.6ZM17.52 21.36V9.84H20.4C20.9302 9.84 21.36 10.2698 21.36 10.8V20.4C21.36 20.9302 20.9302 21.36 20.4 21.36H17.52Z" fill="black"/>
</svg>
